<svg width="74" height="29" viewBox="0 0 74 29" fill="none" xmlns="http://www.w3.org/2000/svg">
<path d="M14.092 15.148C15.436 15.388 16.576 16.096 17.512 17.272C18.448 18.448 18.916 19.78 18.916 21.268C18.916 22.54 18.58 23.692 17.908 24.724C17.26 25.732 16.312 26.536 15.064 27.136C13.816 27.712 12.364 28 10.708 28H0.7V2.98H10.24C11.944 2.98 13.408 3.268 14.632 3.844C15.856 4.42 16.78 5.2 17.404 6.184C18.028 7.144 18.34 8.224 18.34 9.424C18.34 10.864 17.956 12.064 17.188 13.024C16.42 13.984 15.388 14.692 14.092 15.148ZM4.804 13.492H9.88C11.224 13.492 12.268 13.192 13.012 12.592C13.78 11.968 14.164 11.08 14.164 9.928C14.164 8.8 13.78 7.924 13.012 7.3C12.268 6.652 11.224 6.328 9.88 6.328H4.804V13.492ZM10.348 24.652C11.74 24.652 12.832 24.316 13.624 23.644C14.416 22.972 14.812 22.036 14.812 20.836C14.812 19.612 14.392 18.64 13.552 17.92C12.712 17.2 11.596 16.84 10.204 16.84H4.804V24.652H10.348ZM21.8638 5.536C21.1198 5.536 20.4958 5.284 19.9918 4.78C19.4878 4.276 19.2358 3.652 19.2358 2.908C19.2358 2.164 19.4878 1.54 19.9918 1.036C20.4958 0.531999 21.1198 0.279999 21.8638 0.279999C22.5838 0.279999 23.1958 0.531999 23.6998 1.036C24.2038 1.54 24.4558 2.164 24.4558 2.908C24.4558 3.652 24.2038 4.276 23.6998 4.78C23.1958 5.284 22.5838 5.536 21.8638 5.536ZM23.8798 8.164V28H19.7758V8.164H23.8798ZM34.272 28.324C32.4 28.324 30.708 27.904 29.196 27.064C27.684 26.2 26.496 25 25.632 23.464C24.768 21.904 24.336 20.104 24.336 18.064C24.336 16.048 24.78 14.26 25.668 12.7C26.556 11.14 27.768 9.94 29.304 9.1C30.84 8.26 32.556 7.84 34.452 7.84C36.348 7.84 38.064 8.26 39.6 9.1C41.136 9.94 42.348 11.14 43.236 12.7C44.124 14.26 44.568 16.048 44.568 18.064C44.568 20.08 44.112 21.868 43.2 23.428C42.288 24.988 41.04 26.2 39.456 27.064C37.896 27.904 36.168 28.324 34.272 28.324ZM34.272 24.76C35.328 24.76 36.312 24.508 37.224 24.004C38.16 23.5 38.916 22.744 39.492 21.736C40.068 20.728 40.356 19.504 40.356 18.064C40.356 16.624 40.08 15.412 39.528 14.428C38.976 13.42 38.244 12.664 37.332 12.16C36.42 11.656 35.436 11.404 34.38 11.404C33.324 11.404 32.34 11.656 31.428 12.16C30.54 12.664 29.832 13.42 29.304 14.428C28.776 15.412 28.512 16.624 28.512 18.064C28.512 20.2 29.052 21.856 30.132 23.032C31.236 24.184 32.616 24.76 34.272 24.76ZM49.813 11.512V22.492C49.813 23.236 49.981 23.776 50.317 24.112C50.677 24.424 51.277 24.58 52.117 24.58H54.637V28H51.397C49.549 28 48.133 27.568 47.149 26.704C46.165 25.84 45.673 24.436 45.673 22.492V11.512H43.333V8.164H45.673V3.232H49.813V8.164H54.637V11.512H49.813ZM53.4515 17.992C53.4515 16 53.8595 14.236 54.6755 12.7C55.5155 11.164 56.6435 9.976 58.0595 9.136C59.4995 8.272 61.0835 7.84 62.8115 7.84C64.3715 7.84 65.7275 8.152 66.8795 8.776C68.0555 9.376 68.9915 10.132 69.6875 11.044V8.164H73.8275V28H69.6875V25.048C68.9915 25.984 68.0435 26.764 66.8435 27.388C65.6435 28.012 64.2755 28.324 62.7395 28.324C61.0355 28.324 59.4755 27.892 58.0595 27.028C56.6435 26.14 55.5155 24.916 54.6755 23.356C53.8595 21.772 53.4515 19.984 53.4515 17.992ZM69.6875 18.064C69.6875 16.696 69.3995 15.508 68.8235 14.5C68.2715 13.492 67.5395 12.724 66.6275 12.196C65.7155 11.668 64.7315 11.404 63.6755 11.404C62.6195 11.404 61.6355 11.668 60.7235 12.196C59.8115 12.7 59.0675 13.456 58.4915 14.464C57.9395 15.448 57.6635 16.624 57.6635 17.992C57.6635 19.36 57.9395 20.56 58.4915 21.592C59.0675 22.624 59.8115 23.416 60.7235 23.968C61.6595 24.496 62.6435 24.76 63.6755 24.76C64.7315 24.76 65.7155 24.496 66.6275 23.968C67.5395 23.44 68.2715 22.672 68.8235 21.664C69.3995 20.632 69.6875 19.432 69.6875 18.064Z" fill="#10C800"/>
</svg>
