<svg width="30" height="30" viewBox="0 0 30 30" fill="none" xmlns="http://www.w3.org/2000/svg">
<path d="M25.3125 7.26563H21.3281L20.3789 4.60547C20.3133 4.42344 20.1931 4.2661 20.0348 4.15493C19.8764 4.04377 19.6876 3.9842 19.4941 3.98438H10.5059C10.1104 3.98438 9.75586 4.2334 9.62402 4.60547L8.67188 7.26563H4.6875C3.39258 7.26563 2.34375 8.31445 2.34375 9.60938V22.9688C2.34375 24.2637 3.39258 25.3125 4.6875 25.3125H25.3125C26.6074 25.3125 27.6562 24.2637 27.6562 22.9688V9.60938C27.6562 8.31445 26.6074 7.26563 25.3125 7.26563ZM25.5469 22.9688C25.5469 23.0977 25.4414 23.2031 25.3125 23.2031H4.6875C4.55859 23.2031 4.45312 23.0977 4.45312 22.9688V9.60938C4.45312 9.48047 4.55859 9.375 4.6875 9.375H10.1572L10.6582 7.97461L11.3291 6.09375H18.668L19.3389 7.97461L19.8398 9.375H25.3125C25.4414 9.375 25.5469 9.48047 25.5469 9.60938V22.9688ZM15 11.25C12.4102 11.25 10.3125 13.3477 10.3125 15.9375C10.3125 18.5273 12.4102 20.625 15 20.625C17.5898 20.625 19.6875 18.5273 19.6875 15.9375C19.6875 13.3477 17.5898 11.25 15 11.25ZM15 18.75C13.4473 18.75 12.1875 17.4902 12.1875 15.9375C12.1875 14.3848 13.4473 13.125 15 13.125C16.5527 13.125 17.8125 14.3848 17.8125 15.9375C17.8125 17.4902 16.5527 18.75 15 18.75Z" fill="#182C02" fill-opacity="0.8"/>
</svg>
