<svg width="30" height="30" viewBox="0 0 30 30" fill="none" xmlns="http://www.w3.org/2000/svg">
<path d="M20 2.5H10C5.86375 2.5 2.5 5.86375 2.5 10V26.25C2.5 26.5815 2.6317 26.8995 2.86612 27.1339C3.10054 27.3683 3.41848 27.5 3.75 27.5H20C24.1362 27.5 27.5 24.1363 27.5 20V10C27.5 5.86375 24.1362 2.5 20 2.5ZM25 20C25 22.7575 22.7575 25 20 25H5V10C5 7.2425 7.2425 5 10 5H20C22.7575 5 25 7.2425 25 10V20Z" fill="#182C02"/>
<path d="M8.75 11.25H21.25V13.75H8.75V11.25ZM8.75 16.25H17.5V18.75H8.75V16.25Z" fill="#182C02"/>
</svg>
