<svg width="30" height="30" viewBox="0 0 30 30" fill="none" xmlns="http://www.w3.org/2000/svg">
<path d="M27.7296 14.7949L16.4093 3.48048L15.6505 2.72169C15.4776 2.54994 15.2438 2.45355 15.0001 2.45355C14.7564 2.45355 14.5226 2.54994 14.3497 2.72169L2.27063 14.7949C2.09347 14.9714 1.95347 15.1816 1.85887 15.413C1.76427 15.6445 1.717 15.8926 1.71985 16.1426C1.73157 17.1738 2.58997 17.9971 3.62121 17.9971H4.86633V27.5391H25.1339V17.9971H26.4054C26.9064 17.9971 27.378 17.8008 27.7325 17.4463C27.9071 17.2723 28.0454 17.0654 28.1394 16.8376C28.2335 16.6098 28.2814 16.3656 28.2804 16.1192C28.2804 15.6211 28.0841 15.1494 27.7296 14.7949ZM16.6407 25.4297H13.3595V19.4531H16.6407V25.4297ZM23.0245 15.8877V25.4297H18.5157V18.75C18.5157 18.1026 17.9913 17.5781 17.3439 17.5781H12.6564C12.0089 17.5781 11.4845 18.1026 11.4845 18.75V25.4297H6.97571V15.8877H4.16321L15.003 5.05665L15.6798 5.73341L25.84 15.8877H23.0245Z" fill="#182C02"/>
</svg>
