<svg width="100" height="100" viewBox="0 0 100 100" fill="none" xmlns="http://www.w3.org/2000/svg">
<path d="M31.7844 81.6737C31.7844 81.6737 24.1206 69.7046 23.1078 61.0146C22.686 57.3955 22.5215 55.2809 23.1078 51.6847C23.8234 47.2953 24.6671 44.739 27.1124 41.022C28.6336 38.7097 29.9119 37.7297 31.7844 35.6906C37.1419 29.8565 41.3732 27.7599 46.468 21.6958C47.5406 20.419 49.1377 18.3636 49.1377 18.3636C49.1377 18.3636 52.991 23.5187 55.1446 27.0271C57.4601 30.7993 60.4841 37.0235 60.4841 37.0235M31.7844 81.6737C31.7844 81.6737 43.7755 81.5455 51.14 79.6744C55.6938 78.5175 58.483 78.1324 62.4864 75.6759C66.1014 73.4578 67.9111 71.7053 70.4956 68.3453C73.3357 64.653 74.4811 62.1375 75.8351 57.6825C77.4317 52.429 77.3714 49.174 77.1699 43.6877C76.9862 38.685 75.1676 31.0257 75.1676 31.0257M31.7844 81.6737C31.7844 81.6737 46.6881 70.9947 54.4772 62.3475C60.718 55.4191 63.6092 50.9617 68.4933 43.0213C71.3021 38.4548 75.1676 31.0257 75.1676 31.0257M31.7844 81.6737C31.7844 81.6737 31.5435 75.5825 31.7844 71.6774C32.0734 66.9945 32.1625 64.2753 33.1193 59.6818C33.6734 57.0216 33.9733 55.481 35.1216 53.0176C36.7714 49.4783 38.189 47.5944 41.1285 45.0205C43.851 42.6367 45.834 41.8357 49.1377 40.3556C53.3516 38.4676 60.4841 37.0235 60.4841 37.0235M60.4841 37.0235L75.1676 31.0257" stroke="#10C800" stroke-width="2"/>
<path d="M94.3182 50C94.9458 50 95.456 50.509 95.4403 51.1364C95.2255 59.7291 92.578 68.0935 87.7941 75.2532C82.7995 82.7282 75.7004 88.5542 67.3947 91.9945C59.089 95.4349 49.9496 96.335 41.1323 94.5812C32.3149 92.8273 24.2157 88.4982 17.8588 82.1412C11.5019 75.7843 7.17273 67.6851 5.41885 58.8678C3.66498 50.0504 4.56513 40.911 8.00548 32.6053C11.4458 24.2996 17.2718 17.2006 24.7468 12.2059C31.9065 7.422 40.2709 4.77449 48.8636 4.55967C49.491 4.54399 50 5.05424 50 5.68184C50 6.30943 49.491 6.81664 48.8636 6.83315C40.7205 7.04745 32.7954 9.56144 26.0095 14.0956C18.9083 18.8405 13.3735 25.5846 10.1052 33.475C6.83687 41.3655 5.98173 50.0479 7.64791 58.4244C9.31409 66.8008 13.4268 74.4951 19.4658 80.5342C25.5049 86.5733 33.1992 90.6859 41.5756 92.3521C49.9521 94.0183 58.6345 93.1631 66.525 89.8948C74.4154 86.6265 81.1595 81.0918 85.9044 73.9905C90.4386 67.2046 92.9526 59.2795 93.1669 51.1364C93.1834 50.509 93.6906 50 94.3182 50Z" fill="#10C800"/>
<path d="M68.8132 94.9736C69.0796 95.6105 69.8127 95.9123 70.4427 95.63C77.9136 92.283 84.4547 87.1497 89.4848 80.6749C94.7708 73.8707 98.2088 65.816 99.4654 57.292C100.722 48.768 99.7545 40.0639 96.6568 32.0238C93.5591 23.9838 88.4363 16.8807 81.7852 11.4033C75.1341 5.92601 67.1804 2.26038 58.6956 0.761932C50.2107 -0.736513 41.4826 -0.0169173 33.3577 2.85093C25.2328 5.71878 17.9869 10.6376 12.3227 17.1302C6.93265 23.3086 3.14893 30.7127 1.29669 38.6868C1.14049 39.3593 1.57721 40.0209 2.25336 40.1602C2.92951 40.2996 3.58895 39.8639 3.74603 39.1916C5.51076 31.6394 9.09973 24.6275 14.2066 18.7737C19.5876 12.6057 26.4712 7.93284 34.1898 5.20839C41.9085 2.48393 50.2002 1.80031 58.2608 3.22384C66.3214 4.64736 73.8774 8.12971 80.1959 13.3332C86.5145 18.5366 91.3811 25.2846 94.324 32.9226C97.2668 40.5607 98.1859 48.8296 96.9921 56.9274C95.7984 65.0252 92.5323 72.6772 87.5106 79.1411C82.7448 85.2757 76.5512 90.1427 69.4776 93.3229C68.8479 93.606 68.5467 94.3368 68.8132 94.9736Z" fill="#10C800"/>
</svg>
