<svg width="32" height="32" viewBox="0 0 32 32" fill="none" xmlns="http://www.w3.org/2000/svg">
<path d="M25.7201 23.0533L24.0001 21.3333V14.6667C24.0001 10.5733 21.8134 7.14668 18.0001 6.24001V5.33334C18.0001 4.22668 17.1067 3.33334 16.0001 3.33334C14.8934 3.33334 14.0001 4.22668 14.0001 5.33334V6.24001C10.1734 7.14668 8.00007 10.56 8.00007 14.6667V21.3333L6.28007 23.0533C5.44007 23.8933 6.02674 25.3333 7.2134 25.3333H24.7734C25.9734 25.3333 26.5601 23.8933 25.7201 23.0533ZM21.3334 22.6667H10.6667V14.6667C10.6667 11.36 12.6801 8.66668 16.0001 8.66668C19.3201 8.66668 21.3334 11.36 21.3334 14.6667V22.6667ZM16.0001 29.3333C17.4667 29.3333 18.6667 28.1333 18.6667 26.6667H13.3334C13.3334 27.3739 13.6144 28.0522 14.1145 28.5523C14.6145 29.0524 15.2928 29.3333 16.0001 29.3333Z" fill="black"/>
</svg>
