<svg width="30" height="30" viewBox="0 0 30 30" fill="none" xmlns="http://www.w3.org/2000/svg">
<path d="M19.9154 4.52388L19.9143 4.54765V4.57145V22.8492L15.7199 19.1369L15.6896 19.11L15.6571 19.0857C15.5178 18.9812 15.275 18.8429 14.95 18.8429C14.6179 18.8429 14.3565 18.9863 14.1821 19.1478L10 22.8492V4.57145C10 4.45268 10.0301 4.38413 10.1071 4.30712C10.1597 4.25453 10.1932 4.23841 10.2049 4.23363C10.2144 4.22977 10.2282 4.22535 10.2588 4.22705L10.2865 4.22859H10.3143H19.6C19.7079 4.22859 19.7796 4.25589 19.8624 4.33281L19.8642 4.33451C19.8912 4.35947 19.9219 4.38789 19.9154 4.52388Z" stroke="black" stroke-width="2"/>
</svg>
