<svg width="25" height="25" viewBox="0 0 25 25" fill="none" xmlns="http://www.w3.org/2000/svg">
<path d="M19.2222 13.8889V18.3333C19.2222 18.8222 18.8222 19.2222 18.3333 19.2222H7.66667C7.17778 19.2222 6.77778 18.8222 6.77778 18.3333V13.8889C6.77778 13.4 6.37778 13 5.88889 13C5.4 13 5 13.4 5 13.8889V19.2222C5 20.2 5.8 21 6.77778 21H19.2222C20.2 21 21 20.2 21 19.2222V13.8889C21 13.4 20.6 13 20.1111 13C19.6222 13 19.2222 13.4 19.2222 13.8889ZM13.8889 13.5956L15.56 11.9244C15.6423 11.8421 15.74 11.7769 15.8475 11.7323C15.955 11.6878 16.0703 11.6649 16.1867 11.6649C16.303 11.6649 16.4183 11.6878 16.5258 11.7323C16.6333 11.7769 16.731 11.8421 16.8133 11.9244C16.8956 12.0067 16.9609 12.1044 17.0054 12.212C17.05 12.3195 17.0729 12.4347 17.0729 12.5511C17.0729 12.6675 17.05 12.7827 17.0054 12.8903C16.9609 12.9978 16.8956 13.0955 16.8133 13.1778L13.6222 16.3689C13.54 16.4513 13.4423 16.5167 13.3348 16.5613C13.2272 16.6059 13.112 16.6288 12.9956 16.6288C12.8791 16.6288 12.7639 16.6059 12.6563 16.5613C12.5488 16.5167 12.4511 16.4513 12.3689 16.3689L9.17778 13.1778C9.01158 13.0116 8.9182 12.7862 8.9182 12.5511C8.9182 12.3161 9.01158 12.0906 9.17778 11.9244C9.34398 11.7582 9.5694 11.6649 9.80444 11.6649C10.0395 11.6649 10.2649 11.7582 10.4311 11.9244L12.1111 13.5956V5.88889C12.1111 5.4 12.5111 5 13 5C13.4889 5 13.8889 5.4 13.8889 5.88889V13.5956Z" fill="#182C02" fill-opacity="0.5"/>
</svg>
