<svg width="25" height="25" viewBox="0 0 25 25" fill="none" xmlns="http://www.w3.org/2000/svg">
<path d="M9.3257 11.4193L9.32567 11.4192C9.20317 11.3038 9.05914 11.2137 8.90181 11.154C8.74447 11.0943 8.57692 11.0662 8.40871 11.0712C8.2405 11.0763 8.07494 11.1144 7.92148 11.1835C7.76826 11.2524 7.63011 11.3508 7.51487 11.4731C7.39918 11.5954 7.30873 11.7393 7.24868 11.8966C7.18856 12.054 7.1601 12.2218 7.16493 12.3903C7.16977 12.5588 7.2078 12.7247 7.27686 12.8785C7.34591 13.0322 7.44463 13.1708 7.56735 13.2864L7.56736 13.2864C11.1313 16.6419 14.7307 18.7998 18.8888 20.0055C17.9836 21.0571 16.6068 21.7937 14.9647 22.0427C14.5407 22.106 14.1125 22.1374 13.6839 22.1367H13.6831C11.4027 22.1367 9.09948 21.2471 7.33427 19.6357C5.98471 18.4027 4.05817 15.826 2.84228 10.6269L2.84227 10.6268C2.46344 9.00786 2.23111 7.43267 2.12721 6.12969C2.02169 4.80638 2.05361 3.82043 2.16954 3.34949L2.16957 3.34937C2.25694 2.99401 2.40081 2.89065 2.53603 2.85385C2.66033 2.82171 2.80888 2.85403 2.93933 2.99096C5.24747 5.43439 7.68871 5.84499 10.1147 6.25302L10.1426 6.25772L10.1426 6.25773C12.0763 6.58286 13.9726 6.90698 15.8698 8.1324L15.8698 8.13241C18.0187 9.52043 19.4624 11.3676 20.0799 13.4622C20.5002 14.8876 20.5005 16.3384 20.103 17.6802C16.1451 16.6213 12.7396 14.6351 9.3257 11.4193Z" stroke="#182C02" stroke-opacity="0.5"/>
<path d="M20.2703 19.7889C20.2704 19.7887 20.2705 19.7885 20.2706 19.7883L19.8389 19.5361M20.2703 19.7889L19.9892 19.2683C19.9409 19.3585 19.8908 19.4478 19.8389 19.5361M20.2703 19.7889C20.2701 19.7891 20.27 19.7893 20.2699 19.7895L19.8389 19.5361M20.2703 19.7889L19.8389 19.5361M22.7477 19.2535L22.7761 19.2578C22.8069 19.2639 22.8366 19.2751 22.8638 19.291C22.8961 19.31 22.9243 19.3351 22.9467 19.3651C22.9692 19.395 22.9854 19.4292 22.9945 19.4655C23.0036 19.5018 23.0053 19.5396 22.9996 19.5766C22.9939 19.6136 22.9809 19.6491 22.9613 19.681C22.9417 19.7129 22.916 19.7405 22.8855 19.7623C22.8551 19.7842 22.8206 19.7997 22.7841 19.808C22.7476 19.8163 22.7099 19.8172 22.673 19.8108L22.673 19.8106L22.6616 19.8089C21.9324 19.698 21.2079 19.5584 20.4899 19.3903C20.5779 19.2195 20.6599 19.0456 20.7358 18.869C21.391 19.0198 22.0608 19.1478 22.7477 19.2535Z" stroke="#182C02" stroke-opacity="0.5"/>
</svg>
