<svg width="133" height="60" viewBox="0 0 133 60" fill="none" xmlns="http://www.w3.org/2000/svg">
<path d="M19.0707 49.0041C19.0707 49.0041 14.4724 41.8226 13.8647 36.6087C13.6116 34.4372 13.5129 33.1684 13.8647 31.0107C14.2941 28.3771 14.8003 26.8433 16.2675 24.6131C17.1802 23.2257 17.9472 22.6377 19.0707 21.4142C22.2852 17.9138 24.824 16.6558 27.8808 13.0173C28.5244 12.2513 29.4826 11.0181 29.4826 11.0181C29.4826 11.0181 31.7946 14.1111 33.0868 16.2162C34.4761 18.4795 36.2905 22.214 36.2905 22.214M19.0707 49.0041C19.0707 49.0041 26.2653 48.9272 30.684 47.8045C33.4163 47.1104 35.0898 46.8793 37.4919 45.4054C39.6609 44.0745 40.7467 43.023 42.2974 41.007C44.0014 38.7917 44.6887 37.2824 45.5011 34.6094C46.4591 31.4573 46.4229 29.5043 46.302 26.2125C46.1917 23.2108 45.1006 18.6153 45.1006 18.6153M19.0707 49.0041C19.0707 49.0041 28.0129 42.5967 32.6863 37.4084C36.4308 33.2513 38.1655 30.5769 41.096 25.8126C42.7813 23.0727 45.1006 18.6153 45.1006 18.6153M19.0707 49.0041C19.0707 49.0041 18.9261 45.3493 19.0707 43.0063C19.2441 40.1966 19.2975 38.5651 19.8716 35.809C20.2041 34.2128 20.384 33.2885 21.073 31.8104C22.0628 29.6869 22.9134 28.5565 24.6771 27.0122C26.3106 25.5819 27.5004 25.1013 29.4826 24.2132C32.011 23.0804 36.2905 22.214 36.2905 22.214M36.2905 22.214L45.1006 18.6153" stroke="#10C800" stroke-width="2"/>
<path d="M56.5909 29.9998C56.9674 29.9998 57.2736 30.3052 57.2642 30.6816C57.1353 35.8372 55.5468 40.8559 52.6764 45.1517C49.6796 49.6367 45.4202 53.1323 40.4368 55.1965C35.4533 57.2607 29.9697 57.8008 24.6793 56.7485C19.3889 55.6961 14.5294 53.0987 10.7152 49.2845C6.90107 45.4703 4.3036 40.6108 3.25127 35.3204C2.19895 30.03 2.73904 24.5464 4.80325 19.563C6.86746 14.5795 10.3631 10.3201 14.848 7.32333C19.1439 4.45297 24.1625 2.86446 29.3181 2.73557C29.6946 2.72616 30 3.03231 30 3.40887C30 3.78543 29.6946 4.08975 29.3181 4.09966C24.4323 4.22824 19.6772 5.73663 15.6056 8.45716C11.3449 11.3041 8.02408 15.3505 6.06308 20.0848C4.10208 24.8191 3.589 30.0285 4.58871 35.0544C5.58841 40.0803 8.05602 44.6968 11.6795 48.3203C15.3029 51.9437 19.9195 54.4113 24.9453 55.411C29.9712 56.4107 35.1807 55.8977 39.9149 53.9367C44.6492 51.9757 48.6957 48.6548 51.5426 44.3941C54.2631 40.3225 55.7715 35.5675 55.9001 30.6816C55.91 30.3052 56.2143 29.9998 56.5909 29.9998Z" fill="#10C800"/>
<path d="M41.2879 56.9842C41.4477 57.3663 41.8876 57.5474 42.2656 57.378C46.7481 55.3698 50.6728 52.2898 53.6909 48.4049C56.8625 44.3224 58.9253 39.4896 59.6792 34.3752C60.4332 29.2608 59.8527 24.0383 57.9941 19.2143C56.1355 14.3903 53.0618 10.1284 49.0711 6.842C45.0804 3.55561 40.3082 1.35623 35.2173 0.457159C30.1264 -0.441908 24.8896 -0.0101504 20.0146 1.71056C15.1397 3.43127 10.7922 6.38253 7.39363 10.2781C4.15959 13.9852 1.88936 18.4276 0.778013 23.2121C0.684294 23.6156 0.946329 24.0125 1.35202 24.0961C1.75771 24.1797 2.15337 23.9183 2.24762 23.515C3.30645 18.9837 5.45984 14.7765 8.52395 11.2642C11.7526 7.56341 15.8827 4.75971 20.5139 3.12503C25.1451 1.49036 30.1201 1.08019 34.9565 1.9343C39.7928 2.78842 44.3264 4.87783 48.1175 7.9999C51.9087 11.122 54.8287 15.1707 56.5944 19.7536C58.3601 24.3364 58.9115 29.2977 58.1953 34.1564C57.479 39.0151 55.5194 43.6063 52.5064 47.4847C49.6469 51.1654 45.9307 54.0856 41.6865 55.9938C41.3087 56.1636 41.128 56.6021 41.2879 56.9842Z" fill="#10C800"/>
<path d="M77.44 38.168C76.272 38.168 75.216 37.968 74.272 37.568C73.344 37.168 72.608 36.592 72.064 35.84C71.52 35.088 71.24 34.2 71.224 33.176H74.824C74.872 33.864 75.112 34.408 75.544 34.808C75.992 35.208 76.6 35.408 77.368 35.408C78.152 35.408 78.768 35.224 79.216 34.856C79.664 34.472 79.888 33.976 79.888 33.368C79.888 32.872 79.736 32.464 79.432 32.144C79.128 31.824 78.744 31.576 78.28 31.4C77.832 31.208 77.208 31 76.408 30.776C75.32 30.456 74.432 30.144 73.744 29.84C73.072 29.52 72.488 29.048 71.992 28.424C71.512 27.784 71.272 26.936 71.272 25.88C71.272 24.888 71.52 24.024 72.016 23.288C72.512 22.552 73.208 21.992 74.104 21.608C75 21.208 76.024 21.008 77.176 21.008C78.904 21.008 80.304 21.432 81.376 22.28C82.464 23.112 83.064 24.28 83.176 25.784H79.48C79.448 25.208 79.2 24.736 78.736 24.368C78.288 23.984 77.688 23.792 76.936 23.792C76.28 23.792 75.752 23.96 75.352 24.296C74.968 24.632 74.776 25.12 74.776 25.76C74.776 26.208 74.92 26.584 75.208 26.888C75.512 27.176 75.88 27.416 76.312 27.608C76.76 27.784 77.384 27.992 78.184 28.232C79.272 28.552 80.16 28.872 80.848 29.192C81.536 29.512 82.128 29.992 82.624 30.632C83.12 31.272 83.368 32.112 83.368 33.152C83.368 34.048 83.136 34.88 82.672 35.648C82.208 36.416 81.528 37.032 80.632 37.496C79.736 37.944 78.672 38.168 77.44 38.168ZM93.769 24.512C94.777 24.512 95.673 24.736 96.457 25.184C97.241 25.616 97.849 26.264 98.281 27.128C98.729 27.976 98.953 29 98.953 30.2V38H95.593V30.656C95.593 29.6 95.329 28.792 94.801 28.232C94.273 27.656 93.553 27.368 92.641 27.368C91.713 27.368 90.977 27.656 90.433 28.232C89.905 28.792 89.641 29.6 89.641 30.656V38H86.281V20.24H89.641V26.36C90.073 25.784 90.649 25.336 91.369 25.016C92.089 24.68 92.889 24.512 93.769 24.512ZM108.052 38.216C106.772 38.216 105.62 37.936 104.596 37.376C103.572 36.8 102.764 35.992 102.172 34.952C101.596 33.912 101.308 32.712 101.308 31.352C101.308 29.992 101.604 28.792 102.196 27.752C102.804 26.712 103.628 25.912 104.668 25.352C105.708 24.776 106.868 24.488 108.148 24.488C109.428 24.488 110.588 24.776 111.628 25.352C112.668 25.912 113.484 26.712 114.076 27.752C114.684 28.792 114.988 29.992 114.988 31.352C114.988 32.712 114.676 33.912 114.052 34.952C113.444 35.992 112.612 36.8 111.556 37.376C110.516 37.936 109.348 38.216 108.052 38.216ZM108.052 35.288C108.66 35.288 109.228 35.144 109.756 34.856C110.3 34.552 110.732 34.104 111.052 33.512C111.372 32.92 111.532 32.2 111.532 31.352C111.532 30.088 111.196 29.12 110.524 28.448C109.868 27.76 109.06 27.416 108.1 27.416C107.14 27.416 106.332 27.76 105.676 28.448C105.036 29.12 104.716 30.088 104.716 31.352C104.716 32.616 105.028 33.592 105.652 34.28C106.292 34.952 107.092 35.288 108.052 35.288ZM120.813 26.624C121.245 26.016 121.837 25.512 122.589 25.112C123.357 24.696 124.229 24.488 125.205 24.488C126.341 24.488 127.365 24.768 128.277 25.328C129.205 25.888 129.933 26.688 130.461 27.728C131.005 28.752 131.277 29.944 131.277 31.304C131.277 32.664 131.005 33.872 130.461 34.928C129.933 35.968 129.205 36.776 128.277 37.352C127.365 37.928 126.341 38.216 125.205 38.216C124.229 38.216 123.365 38.016 122.613 37.616C121.877 37.216 121.277 36.712 120.813 36.104V44.336H117.453V24.704H120.813V26.624ZM127.845 31.304C127.845 30.504 127.677 29.816 127.341 29.24C127.021 28.648 126.589 28.2 126.045 27.896C125.517 27.592 124.941 27.44 124.317 27.44C123.709 27.44 123.133 27.6 122.589 27.92C122.061 28.224 121.629 28.672 121.293 29.264C120.973 29.856 120.813 30.552 120.813 31.352C120.813 32.152 120.973 32.848 121.293 33.44C121.629 34.032 122.061 34.488 122.589 34.808C123.133 35.112 123.709 35.264 124.317 35.264C124.941 35.264 125.517 35.104 126.045 34.784C126.589 34.464 127.021 34.008 127.341 33.416C127.677 32.824 127.845 32.12 127.845 31.304Z" fill="#10C800"/>
</svg>
