<svg width="30" height="30" viewBox="0 0 30 30" fill="none" xmlns="http://www.w3.org/2000/svg">
<path fill-rule="evenodd" clip-rule="evenodd" d="M5.00063 6.5625C3.79125 6.5625 2.8125 7.54125 2.8125 8.75062V21.2494C2.8125 22.4587 3.79125 23.4375 5.00063 23.4375H17.4994C18.7087 23.4375 19.6875 22.4587 19.6875 21.2494V8.75062C19.6875 7.54125 18.7087 6.5625 17.4994 6.5625H5.00063ZM0.9375 8.75062C0.9375 6.50625 2.75625 4.6875 5.00063 4.6875H17.4994C19.7437 4.6875 21.5625 6.50625 21.5625 8.75062V21.2494C21.5625 23.4937 19.7437 25.3125 17.4994 25.3125H5.00063C3.92302 25.3125 2.88955 24.8844 2.12756 24.1224C1.36558 23.3605 0.9375 22.327 0.9375 21.2494V8.75062Z" fill="#182C02" fill-opacity="0.8"/>
<path fill-rule="evenodd" clip-rule="evenodd" d="M21.0937 10.5937L26.2837 7.58436C26.3729 7.53062 26.4746 7.50116 26.5787 7.49893C26.6827 7.4967 26.7856 7.52177 26.877 7.57164C26.9684 7.62152 27.0452 7.69445 27.0996 7.7832C27.1541 7.87195 27.1844 7.97341 27.1874 8.07749V21.9225C27.1874 22.35 26.6999 22.6594 26.2837 22.4175L21.0955 19.4081L20.1543 21.03L25.3424 24.0394C26.953 24.9731 29.0624 23.8612 29.0624 21.9225V8.07749C29.0624 6.14061 26.953 5.02874 25.3424 5.96249L20.1562 8.97186L21.0974 10.5937H21.0937Z" fill="#182C02" fill-opacity="0.8"/>
</svg>
